<?xml version="1.0" encoding="UTF-8"?>
<!DOCTYPE svg PUBLIC "-//W3C//DTD SVG 1.1//EN" "http://www.w3.org/Graphics/SVG/1.1/DTD/svg11.dtd">
<!-- Creator: CorelDRAW X7 -->
<svg xmlns="http://www.w3.org/2000/svg" xml:space="preserve" width="282.408mm" height="67.2363mm" version="1.1" style="shape-rendering:geometricPrecision; text-rendering:geometricPrecision; image-rendering:optimizeQuality; fill-rule:evenodd; clip-rule:evenodd"
viewBox="0 0 29072 6921"
 xmlns:xlink="http://www.w3.org/1999/xlink">
 <defs>
  <style type="text/css">
   <![CDATA[
    .fil3 {fill:#00B050;fill-rule:nonzero}
    .fil0 {fill:#298AE3;fill-rule:nonzero}
    .fil1 {fill:red;fill-rule:nonzero}
    .fil2 {fill:#FFC000;fill-rule:nonzero}
   ]]>
  </style>
 </defs>
 <g id="Capa_x0020_1">
  <metadata id="CorelCorpID_0Corel-Layer"/>
  <g id="_210453564128">
   <path class="fil0" d="M955 4196c0,522 172,958 515,1309 342,352 762,529 1260,529 451,0 848,-179 1197,-533 348,-355 522,-769 522,-1238 0,-503 -172,-934 -516,-1296 -342,-361 -749,-542 -1222,-542 -488,0 -902,172 -1244,514 -342,344 -512,762 -512,1257zm3446 2592l0 -630c-235,248 -501,436 -794,563 -293,127 -601,191 -924,191 -767,0 -1405,-258 -1916,-773 -511,-516 -767,-1160 -767,-1935 0,-365 64,-708 191,-1030 127,-323 309,-607 544,-853 253,-267 533,-467 842,-598 309,-130 659,-196 1050,-196 350,0 673,63 966,185 294,123 563,312 808,568l0 -620 936 0 0 5128 -936 0zm15035 -1747c-213,611 -532,1077 -953,1398 -420,322 -936,482 -1544,482 -380,0 -725,-65 -1040,-195 -155,-65 -301,-147 -439,-242 -139,-97 -274,-215 -405,-355 -235,-251 -423,-542 -563,-875 -65,-172 -114,-341 -149,-508 -34,-168 -51,-340 -51,-517 0,-351 60,-684 181,-997 121,-314 304,-600 546,-861 264,-283 560,-498 889,-643 330,-146 683,-220 1058,-220 584,0 1092,161 1525,484 431,323 746,780 945,1368l-1011 0c-159,-313 -366,-547 -622,-703 -256,-154 -561,-232 -916,-232 -454,0 -840,172 -1160,515 -320,346 -481,769 -481,1275 0,511 163,937 486,1279 323,341 725,511 1206,511 318,0 608,-83 870,-250 263,-165 468,-404 617,-714l1011 0z"/>
   <path class="fil1" d="M7103 4196c0,522 172,958 515,1309 342,352 763,529 1261,529 450,0 848,-179 1196,-533 349,-355 522,-769 522,-1238 0,-503 -172,-934 -516,-1296 -342,-361 -749,-542 -1222,-542 -488,0 -902,172 -1244,514 -342,344 -512,762 -512,1257zm3456 2592l0 -630c-237,248 -501,436 -796,563 -294,127 -603,191 -926,191 -768,0 -1410,-258 -1920,-773 -513,-516 -769,-1160 -769,-1935 0,-365 64,-708 191,-1030 127,-323 309,-607 544,-853 253,-267 533,-467 842,-598 309,-130 659,-196 1050,-196 349,0 668,63 964,185 295,123 568,312 820,568l0 -2280 926 0 0 6788 -926 0zm17502 -3055c-113,-422 -310,-750 -592,-980 -283,-231 -623,-347 -1021,-347 -404,0 -753,118 -1047,351 -293,234 -500,561 -617,976l3277 0zm-3295 830c75,427 267,774 576,1041 310,267 678,401 1103,401 307,0 584,-73 832,-220 248,-146 447,-353 595,-620l1037 0c-233,565 -563,999 -988,1301 -426,304 -919,455 -1481,455 -380,0 -726,-65 -1037,-197 -312,-132 -599,-334 -856,-604 -236,-252 -424,-543 -564,-876 -65,-170 -114,-340 -149,-507 -34,-169 -51,-341 -51,-517 0,-358 60,-692 181,-1006 121,-315 304,-601 546,-862 255,-284 543,-494 864,-634 321,-140 671,-210 1047,-210 450,0 869,104 1254,312 385,209 705,501 959,880 72,110 135,229 191,361 56,132 104,268 140,408 72,280 107,596 107,950l0 144 -4306 0z"/>
   <path class="fil2" d="M13471 1060l-917 0 0 -1060 917 0 0 1060zm-917 5728l0 -5128 917 0 0 5128 -917 0z"/>
   <path class="fil3" d="M20001 5127l868 1c0,271 75,495 223,670 150,177 339,264 570,264 210,0 385,-65 525,-195 140,-131 210,-301 210,-508 0,-178 -48,-328 -142,-450 -95,-123 -254,-231 -479,-325l-316 -121c-360,-134 -592,-242 -694,-326 -183,-146 -318,-313 -406,-501 -87,-188 -130,-400 -130,-637 0,-412 145,-767 436,-1059 289,-295 646,-441 1064,-441 439,0 786,129 1044,385 134,130 239,285 313,465 75,181 112,383 112,611l-888 0c0,-88 -16,-168 -49,-242 -32,-75 -78,-142 -137,-201 -112,-106 -258,-159 -439,-159 -161,0 -298,57 -411,172 -111,116 -167,256 -167,420 0,283 250,517 748,703l331 128c390,157 668,354 835,588 169,236 253,551 253,949 0,456 -156,838 -466,1144 -312,307 -703,459 -1176,459 -476,0 -859,-160 -1152,-480 -153,-167 -270,-360 -355,-578 -84,-218 -125,-463 -125,-736z"/>
  </g>
 </g>
</svg>
